# xmcd CD database file
#
# Track frame offsets:
#	150
#	32532
#	52496
#	76811
#	102019
#	109118
#	147422
#	165387
#	201635
#	207157
#
# Disc length: 3170 seconds
#
# Revision: 0
# Processed by: cddbd v1.5.2PL0 Copyright (c) Steve Scherf et al.
# Submitted via: CDex 1.70beta2
#
DISCID=8a0c600a
DTITLE=Stone Raiders - Truth To Power
DYEAR=2012
DGENRE=Jazz
TTITLE0=Power To Spirit
TTITLE1=Funktomatik (Tribute To Eddie Harris)
TTITLE2=Truth To Power
TTITLE3=The Radiance Of Pure Reality
TTITLE4=Stone Phase
TTITLE5=Calling Civilization
TTITLE6=Loves Parody
TTITLE7=Toxic U (Episode II)
TTITLE8=Phase Funky
TTITLE9=The Money Disease
EXTD=YEAR: 2012
EXTT0=
EXTT1=
EXTT2=
EXTT3=
EXTT4=
EXTT5=
EXTT6=
EXTT7=
EXTT8=
EXTT9=
PLAYORDER=
